Coordinates
version=1
nRows=7
nColumns=46
inDegrees=yes

Units are S.I. units (second, meters, Newtons, ...)
Angles are in degrees.

endheader
time	pelvis_tilt	pelvis_list	pelvis_rotation	pelvis_tx	pelvis_ty	pelvis_tz	bb_angle	bb_tx	bb_ty	bb_tz	hip_flexion_r	hip_adduction_r	hip_rotation_r	knee_angle_r	knee_angle_r_beta	ankle_angle_r	subtalar_angle_r	mtp_angle_r	crank_angle_r	hip_flexion_l	hip_adduction_l	hip_rotation_l	knee_angle_l	knee_angle_l_beta	ankle_angle_l	subtalar_angle_l	mtp_angle_l	crank_angle_l	lumbar_extension	lumbar_bending	lumbar_rotation	arm_flex_r	arm_add_r	arm_rot_r	elbow_flex_r	pro_sup_r	wrist_flex_r	wrist_dev_r	arm_flex_l	arm_add_l	arm_rot_l	elbow_flex_l	pro_sup_l	wrist_flex_l	wrist_dev_l
      0.00000000	    -21.82378980	      0.14393599	     -1.51815872	      0.05902793	      0.99238201	     -0.21285325	      0.00000000	      0.50000000	      0.00000000	      0.25000000	     87.37424287	     -7.95690059	     -3.96888728	     76.41857849	      1.33375580	      3.77893587	     -1.20903538	      0.00000000	      0.00000000	     63.28502967	    -11.29395935	     -2.87640748	     84.23235738	      1.47013197	     -0.31646474	     -8.59196758	      0.00000000	      0.00000000	    -39.86931761	     -0.57886557	      0.28899655	     88.97178365	     -2.68088421	     39.91833774	     25.49357007	     33.83950638	      0.00000000	      0.00000000	     86.85583619	    -13.74382018	     43.85073851	     33.32336418	     36.53542078	      0.00000000	      0.00000000
      0.00500000	    -21.85078369	      0.13546144	     -1.50187918	      0.05899427	      0.99238633	     -0.21286222	      0.00000000	      0.50000000	      0.00000000	      0.25000000	     87.50940871	     -7.97315065	     -3.95341125	     76.55972277	      1.33621924	      3.72721224	     -1.23616231	      0.00000000	      0.00000000	     63.25073634	    -11.28606512	     -2.88795650	     84.10266173	      1.46786836	     -0.27731733	     -8.50334780	      0.00000000	      0.00000000	    -39.84502693	     -0.55154091	      0.28759051	     88.98098105	     -2.54777279	     39.49449047	     25.30964915	     33.90175351	      0.00000000	      0.00000000	     86.76617070	    -13.51882957	     42.89648177	     33.13446828	     36.80921672	      0.00000000	      0.00000000
      0.01000000	    -21.90888775	      0.08165939	     -1.49700364	      0.05888901	      0.99234284	     -0.21283275	      0.00000000	      0.50000000	      0.00000000	      0.25000000	     87.64771816	     -7.96617740	     -4.00223957	     76.66130598	      1.33799220	      3.66510587	     -1.24437042	      0.00000000	      0.00000000	     63.28543406	    -11.33025395	     -2.86570844	     83.99152577	      1.46592867	     -0.37400538	     -8.49127918	      0.00000000	      0.00000000	    -39.79536325	     -0.50749184	      0.37538701	     88.94986069	     -2.68812820	     39.44861762	     25.56796254	     33.86478591	      0.00000000	      0.00000000	     86.88324744	    -13.41390393	     43.24074630	     32.77465891	     37.10940684	      0.00000000	      0.00000000
      0.01500000	    -21.87416940	      0.12669974	     -1.49969498	      0.05897971	      0.99256308	     -0.21278246	      0.00000000	      0.50000000	      0.00000000	      0.25000000	     87.70172696	     -7.99295959	     -3.96825090	     76.78020640	      1.34006740	      3.63876479	     -1.26587535	      0.00000000	      0.00000000	     63.14388191	    -11.32789885	     -2.96520894	     83.81879711	      1.46291398	     -0.44082650	     -8.51385623	      0.00000000	      0.00000000	    -39.84839465	     -0.55439087	      0.31975075	     88.97262923	     -2.56415715	     39.27164835	     25.28973705	     34.29757444	      0.00000000	      0.00000000	     86.81252998	    -13.41212122	     42.79388750	     32.89565718	     37.48052310	      0.00000000	      0.00000000
      0.02000000	    -21.90657396	      0.01227517	     -1.49602515	      0.05887448	      0.99218149	     -0.21264006	      0.00000000	      0.50000000	      0.00000000	      0.25000000	     87.85401491	     -7.95233880	     -4.01474648	     76.96336593	      1.34326414	      3.58868932	     -1.25023868	      0.00000000	      0.00000000	     63.12695889	    -11.39478297	     -2.87518065	     83.65883487	      1.46012212	     -0.64732347	     -8.49667425	      0.00000000	      0.00000000	    -39.81164826	     -0.44287883	      0.35252965	     88.96744921	     -2.39690964	     39.13732858	     24.92171515	     34.67634626	      0.00000000	      0.00000000	     86.73927513	    -13.38865816	     42.32712501	     32.94193848	     37.85659551	      0.00000000	      0.00000000
      0.02500000	    -21.90538609	     -0.03250210	     -1.47028899	      0.05886025	      0.99223165	     -0.21266173	      0.00000000	      0.50000000	      0.00000000	      0.25000000	     87.91746111	     -7.97095089	     -4.04889847	     77.06984437	      1.34512254	      3.58931075	     -1.30275904	      0.00000000	      0.00000000	     63.08222314	    -11.39252773	     -2.85028983	     83.53684388	      1.45799297	     -0.75746863	     -8.53179741	      0.00000000	      0.00000000	    -39.84217743	     -0.36248996	      0.33172014	     88.97179233	     -2.31373927	     38.83393004	     24.94175322	     35.05894208	      0.00000000	      0.00000000	     86.65386007	    -13.39651070	     41.83473474	     33.04519738	     38.17808614	      0.00000000	      0.00000000
      0.03000000	    -21.96606349	     -0.01459620	     -1.51009078	      0.05878677	      0.99215292	     -0.21249573	      0.00000000	      0.50000000	      0.00000000	      0.25000000	     88.07125872	     -7.90112269	     -3.99558819	     77.17583180	      1.34697237	      3.54707975	     -1.38334937	      0.00000000	      0.00000000	     63.08603396	    -11.44760336	     -2.91555773	     83.40937071	      1.45576815	     -0.83957808	     -8.40472892	      0.00000000	      0.00000000	    -39.76688996	     -0.45636562	      0.43778956	     88.95641341	     -2.84453356	     39.67988926	     25.13764697	     35.72448436	      0.00000000	      0.00000000	     86.90470962	    -13.49763102	     43.27380618	     32.62506562	     39.06303535	      0.00000000	      0.00000000
